# xmcd
#
# Track frame offsets:
#	150
#	3078
#	17516
#	28957
#	40852
#	50044
#	65101
#	72614
#	85107
#	92855
#	101672
#	111894
#	121417
#	126048
#	136462
#	141874
#	153358
#	167786
#	182260
#	192439
#	206689
#	217908
#	230307
#	241534
#	259993
#	273906
#	290819
#	303447
#	324109
#
# Disc length: 4506 seconds
#
# Revision: 0
# Processed by: cddbd v1.5.2PL0 Copyright (c) Steve Scherf et al.
# Submitted via: dBpowerAMP V4.0
#
DISCID=a111981d
DTITLE=P.D.C - Bravehearts
DYEAR=1900
DGENRE=Gangsta
TTITLE0=Intro
TTITLE1=Bullshit
TTITLE2=Streets, Roads, Blocks
TTITLE3=Don't Give Up
TTITLE4=New Shit
TTITLE5=1.2.3.
TTITLE6=Bang Bang
TTITLE7=All Stars
TTITLE8=Da Streets Are Crazy
TTITLE9=What The Fuck
TTITLE10=Freestyle
TTITLE11=S.M.S. Freestyle
TTITLE12=Pressure
TTITLE13=Tugz On Road
TTITLE14=Ghetto Life
TTITLE15=Tell Dem Again
TTITLE16=Pussy Drugs Cash
TTITLE17=Roadside G's
TTITLE18=Freestyle
TTITLE19=Mixtape Exlusive
TTITLE20=balh
TTITLE21=Fire Hazzard
TTITLE22=Peel Dem
TTITLE23=Freestyle
TTITLE24=Mama Told Me
TTITLE25=I Don't Care
TTITLE26=Picture Me Rolling
TTITLE27=Singing The Blues
TTITLE28=Outro
EXTD=PDC-BRAVEHEARTS MIXTAPE
EXTT0=
EXTT1=
EXTT2=
EXTT3=
EXTT4=
EXTT5=
EXTT6=
EXTT7=
EXTT8=
EXTT9=
EXTT10=
EXTT11=
EXTT12=
EXTT13=
EXTT14=
EXTT15=
EXTT16=
EXTT17=
EXTT18=
EXTT19=
EXTT20=
EXTT21=
EXTT22=
EXTT23=
EXTT24=
EXTT25=
EXTT26=
EXTT27=
EXTT28=
PLAYORDER=
